<?xml version="1.0" encoding="UTF-8"?>
<svg version="1.1" viewBox="0 0 2048 2048" width="1280" height="1280" xmlns="http://www.w3.org/2000/svg">
<path transform="translate(0)" d="m0 0h2048v2048h-2048z" fill="#5290A8"/>
<path transform="translate(277,164)" d="m0 0 11 6 23 14 19 12 24 15 19 12 26 16 23 15 20 12 23 15 20 12 17 11 19 12 21 13 24 15 19 12 21 13 17 11 12 8 1 1 1 128v1049l-1 154-19 9-32 14-29 13-180 80-41 18-33 15-23 10h-3l-1-12v-1631l1-71z" fill="#FEFEFE"/>
<path transform="translate(1153,164)" d="m0 0h3l1 28v1686l-3 1-31-13-27-12-40-18-25-11-97-43-29-13-25-11-36-16-40-18-8-4-1-5v-1294l1-32 8-6 57-36 26-16 38-24 26-16 17-11 21-13 38-24 16-10 19-12 24-15 19-12 24-15 19-12z" fill="#FEFEFE"/>
<path transform="translate(1164,872)" d="m0 0h635l1 1v323l-108 1h-527l-2-5v-316z" fill="#FEFEFE"/>
<path transform="translate(1164,160)" d="m0 0h635l1 1v323l-108 1h-527l-2-5v-316z" fill="#FEFEFE"/>
<path transform="translate(1164,1556)" d="m0 0h635l1 1v323l-113 1h-377l-146-1-1-1v-319z" fill="#FEFEFE"/>
</svg>
